<svg width="888" height="208" viewBox="0 0 888 208" fill="none" xmlns="http://www.w3.org/2000/svg">
<path d="M874.143 176.918C874.539 177.397 875.128 177.674 875.75 177.674C876.371 177.674 876.96 177.397 877.356 176.918L885.858 166.627C887.552 164.578 887.97 161.762 886.951 159.279C885.966 156.882 883.868 155.297 881.347 155.043C879.367 154.828 877.312 155.425 875.75 156.636C874.188 155.427 872.089 154.846 870.161 155.041C867.632 155.297 865.534 156.883 864.549 159.281C863.53 161.763 863.949 164.579 865.642 166.628L874.143 176.918ZM868.403 160.862C868.59 160.405 869.178 159.33 870.589 159.185C870.711 159.173 870.834 159.167 870.958 159.167C872.188 159.167 873.331 159.781 874.014 160.808C874.399 161.39 875.051 161.741 875.75 161.741C876.447 161.741 877.098 161.39 877.484 160.811C878.238 159.675 879.511 159.029 880.918 159.187C882.322 159.329 882.908 160.405 883.097 160.862C883.437 161.689 883.497 162.943 882.646 163.975L875.75 172.32L868.855 163.975C868.003 162.943 868.063 161.692 868.403 160.862Z" fill="#705096"/>
<path d="M795.264 180.678H765.915C757.759 180.678 751.125 174.043 751.125 165.888V127.61C751.125 125.364 749.296 123.535 747.049 123.535H726.125C723.17 123.535 720.767 121.131 720.767 118.177C720.767 115.223 723.17 112.819 726.125 112.819H747.049C755.205 112.819 761.838 119.454 761.838 127.61V165.888C761.838 168.135 763.667 169.962 765.915 169.962H795.264C797.511 169.962 799.34 168.135 799.34 165.888C799.34 164.902 800.138 164.102 801.124 164.102C802.11 164.102 802.911 164.902 802.911 165.888C802.911 170.104 799.481 173.535 795.264 173.535H765.915C761.698 173.535 758.267 170.104 758.267 165.888V127.61C758.267 121.424 753.235 116.392 747.049 116.392H726.125C725.141 116.392 724.339 117.193 724.339 118.177C724.339 119.162 725.141 119.963 726.125 119.963H747.049C751.266 119.963 754.697 123.393 754.697 127.61V165.888C754.697 172.073 759.729 177.106 765.915 177.106H795.264C801.45 177.106 806.482 172.073 806.482 165.888C806.482 164.902 807.282 164.102 808.268 164.102C809.254 164.102 810.053 164.902 810.053 165.888C810.053 174.043 803.419 180.678 795.264 180.678Z" fill="#705096"/>
<path d="M795.768 116.392H786.839C785.853 116.392 785.054 115.592 785.054 114.606V90.4984C785.054 87.0523 787.857 84.2479 791.303 84.2479C794.75 84.2479 797.554 87.0523 797.554 90.4984V114.606C797.554 115.592 796.754 116.392 795.768 116.392ZM788.625 112.819H793.983V90.4984C793.983 89.021 792.781 87.8192 791.303 87.8192C789.827 87.8192 788.625 89.021 788.625 90.4984V112.819Z" fill="#705096"/>
<path d="M822.554 116.392H813.625C812.638 116.392 811.84 115.592 811.84 114.606V90.4984C811.84 87.0523 814.643 84.2479 818.089 84.2479C821.536 84.2479 824.339 87.0523 824.339 90.4984V114.606C824.339 115.592 823.54 116.392 822.554 116.392ZM815.41 112.819H820.768V90.4984C820.768 89.021 819.566 87.8192 818.089 87.8192C816.612 87.8192 815.41 89.021 815.41 90.4984V112.819Z" fill="#705096"/>
<path d="M822.319 159.249H787.074C781.036 159.249 776.124 154.337 776.124 148.3V112.819H833.267V148.3C833.267 154.337 828.357 159.249 822.319 159.249ZM779.697 116.392V148.3C779.697 152.367 783.007 155.677 787.074 155.677H822.319C826.386 155.677 829.696 152.367 829.696 148.3V116.392H779.697Z" fill="#705096"/>
<path d="M804.696 148.535C800.42 148.535 796.498 147.027 794.203 144.5C793.54 143.771 793.594 142.642 794.324 141.979C795.055 141.316 796.185 141.371 796.845 142.1C798.451 143.866 801.459 144.964 804.696 144.964C807.897 144.964 810.888 143.884 812.503 142.146C813.175 141.424 814.306 141.383 815.027 142.055C815.749 142.726 815.79 143.856 815.118 144.577C812.816 147.056 808.92 148.535 804.696 148.535Z" fill="#705096"/>
<path d="M820.768 129.784C820.768 131.264 819.568 132.463 818.089 132.463C816.61 132.463 815.41 131.264 815.41 129.784C815.41 128.305 816.61 127.105 818.089 127.105C819.568 127.105 820.768 128.305 820.768 129.784Z" fill="#705096"/>
<path d="M793.983 129.784C793.983 131.264 792.783 132.463 791.303 132.463C789.824 132.463 788.625 131.264 788.625 129.784C788.625 128.305 789.824 127.105 791.303 127.105C792.783 127.105 793.983 128.305 793.983 129.784Z" fill="#705096"/>
<path d="M815.41 166.392H793.983C792.997 166.392 792.196 165.592 792.196 164.606V157.463C792.196 156.477 792.997 155.677 793.983 155.677H815.41C816.396 155.677 817.197 156.477 817.197 157.463V164.606C817.197 165.592 816.396 166.392 815.41 166.392ZM795.768 162.821H813.625V159.25H795.768V162.821Z" fill="#705096"/>
<path d="M665.27 130.346C662.117 122.001 656.7 114.58 649.519 108.986L653.761 106.637C655.163 106.878 656.591 107 658.015 107C671.8 107 683.015 95.7858 683.015 82.0005C683.015 68.214 671.8 57 658.015 57C644.231 57 633.016 68.214 633.016 82.0005C633.016 89.0803 635.974 95.7309 641.181 100.471L640.185 103.273C633.999 100.374 627.395 98.8375 620.515 98.6957V86.1668C620.515 85.0153 619.583 84.0842 618.433 84.0842C617.281 84.0842 616.349 85.0153 616.349 86.1668V98.7779C596.825 100.014 580.38 112.74 573.709 130.257C566.175 130.439 560.099 136.612 560.099 144.188C560.099 150.587 564.369 156.051 570.516 157.655V166.638C570.516 175.11 577.407 182 585.878 182H653.07C661.54 182 668.432 175.11 668.432 166.638V157.261C673.904 155.282 677.618 150.146 677.618 144.189C677.618 137.145 672.223 131.145 665.27 130.346ZM637.182 82.0005C637.182 70.5135 646.528 61.1675 658.015 61.1675C669.503 61.1675 678.849 70.5135 678.849 82.0005C678.849 93.4874 669.503 102.833 658.015 102.833C656.608 102.833 655.199 102.692 653.825 102.413C653.334 102.311 652.834 102.392 652.399 102.63L642.981 107.843L645.587 100.52C645.883 99.6875 645.621 98.7577 644.934 98.2033C640.007 94.2194 637.182 88.3138 637.182 82.0005ZM564.265 144.188C564.265 139.396 567.737 135.416 572.293 134.585C571.144 138.739 570.516 143.109 570.516 147.625V153.294C566.781 151.859 564.265 148.301 564.265 144.188ZM664.265 166.638C664.265 172.81 659.243 177.834 653.07 177.834H585.878C579.704 177.834 574.682 172.81 574.682 166.638V147.625C574.682 122.926 594.776 102.833 619.473 102.833C626.249 102.833 632.738 104.318 638.783 107.214L637.211 111.632C636.921 112.449 637.166 113.357 637.827 113.92C638.212 114.245 638.691 114.413 639.174 114.413C639.52 114.413 639.866 114.329 640.184 114.153L645.527 111.196C657.264 119.606 664.265 133.195 664.265 147.625V166.638ZM668.432 152.708V147.625C668.432 143.289 667.835 139.03 666.731 134.93C670.628 136.236 673.451 139.93 673.451 144.188C673.451 147.826 671.471 151.021 668.432 152.708Z" fill="#705096"/>
<path d="M593.543 133.278C587.372 133.278 582.351 138.299 582.351 144.472C582.351 145.623 583.283 146.554 584.434 146.554C585.585 146.554 586.517 145.623 586.517 144.472C586.517 140.596 589.669 137.444 593.543 137.444C597.417 137.444 600.571 140.596 600.571 144.472C600.571 145.623 601.503 146.554 602.653 146.554C603.805 146.554 604.737 145.623 604.737 144.472C604.737 138.299 599.716 133.278 593.543 133.278Z" fill="#705096"/>
<path d="M643.259 133.278C637.088 133.278 632.067 138.299 632.067 144.472C632.067 145.623 632.999 146.554 634.15 146.554C635.301 146.554 636.233 145.623 636.233 144.472C636.233 140.596 639.385 137.444 643.259 137.444C647.133 137.444 650.287 140.596 650.287 144.472C650.287 145.623 651.219 146.554 652.369 146.554C653.521 146.554 654.453 145.623 654.453 144.472C654.453 138.299 649.432 133.278 643.259 133.278Z" fill="#705096"/>
<path d="M629.03 160.007C622.683 163.274 616.339 163.272 609.643 159.988C608.61 159.477 607.363 159.912 606.855 160.941C606.349 161.974 606.777 163.223 607.81 163.728C611.728 165.651 615.63 166.611 619.487 166.611C623.357 166.611 627.183 165.645 630.938 163.71C631.961 163.185 632.364 161.928 631.837 160.905C631.309 159.881 630.053 159.472 629.03 160.007Z" fill="#705096"/>
<path d="M656.317 94.1265C656.713 94.6057 657.302 94.8823 657.924 94.8823C658.545 94.8823 659.134 94.6057 659.53 94.1265L668.032 83.8352C669.726 81.786 670.144 78.9703 669.125 76.4872C668.14 74.0899 666.042 72.5056 663.521 72.2517C661.541 72.0359 659.486 72.6331 657.924 73.8443C656.363 72.6355 654.263 72.0538 652.336 72.2493C649.806 72.5056 647.708 74.0911 646.723 76.4895C645.704 78.9715 646.124 81.7872 647.817 83.8364L656.317 94.1265ZM650.577 78.0703C650.765 77.6137 651.352 76.5384 652.764 76.393C652.885 76.3811 653.008 76.3751 653.132 76.3751C654.362 76.3751 655.505 76.989 656.189 78.0166C656.574 78.5984 657.226 78.9488 657.924 78.9488C658.622 78.9488 659.272 78.5984 659.659 78.019C660.412 76.8829 661.685 76.2368 663.092 76.3954C664.496 76.5372 665.083 77.6137 665.271 78.0703C665.611 78.8976 665.672 80.1516 664.82 81.1828L657.924 89.5286L651.029 81.1828C650.177 80.1516 650.238 78.9 650.577 78.0703Z" fill="#705096"/>
<g clip-path="url(#clip0)">
<path d="M401.166 93.7536C399.582 93.7536 398.297 92.4737 398.291 90.8911L398.243 79.4873C398.238 77.8998 399.518 76.6068 401.107 76.6002H401.119C402.703 76.6002 403.988 77.8785 403.994 79.4627L404.042 90.8648C404.047 92.4523 402.767 93.7453 401.178 93.7536C401.175 93.7536 401.17 93.7536 401.166 93.7536Z" fill="#705096"/>
<path d="M504.504 66.1243C502.917 66.1243 501.632 64.8428 501.629 63.2553L501.586 40.2553C500.132 16.4723 476.066 5.74958 452.86 5.74958C429.656 5.74958 405.588 16.4723 404.128 40.4248L404.091 63.2553C404.088 64.8428 402.803 66.1243 401.216 66.1243C401.214 66.1243 401.214 66.1243 401.211 66.1243C399.625 66.1227 398.338 64.8313 398.342 63.2438L398.384 40.2438C400.074 12.3908 426.963 0 452.86 0C478.757 0 505.646 12.3908 507.33 40.076L507.378 63.2438C507.381 64.8313 506.095 66.1227 504.509 66.1243C504.506 66.1243 504.506 66.1243 504.504 66.1243Z" fill="#705096"/>
<path d="M504.554 93.7537C502.968 93.7537 501.681 92.4689 501.68 90.883L501.663 80.746C501.66 79.1585 502.945 77.8704 504.532 77.8671H504.537C506.123 77.8671 507.409 79.1519 507.413 80.7377L507.429 90.8731C507.432 92.4623 506.146 93.7504 504.56 93.7537C504.557 93.7537 504.557 93.7537 504.554 93.7537Z" fill="#705096"/>
<path d="M497.369 86.168C495.935 86.168 494.693 85.097 494.517 83.6362C494.328 82.0602 495.451 80.6273 497.029 80.4381C501.351 79.9166 504.609 76.2366 504.609 71.8754C504.609 67.3794 501.24 63.6862 496.771 63.2848C495.191 63.1417 494.023 61.745 494.166 60.1624C494.31 58.5815 495.741 57.4414 497.289 57.5566C504.739 58.2294 510.361 64.3837 510.361 71.8754C510.361 79.1434 504.925 85.2796 497.715 86.1449C497.6 86.1597 497.485 86.168 497.369 86.168Z" fill="#705096"/>
<path d="M408.39 86.1713C408.281 86.1713 408.168 86.1664 408.053 86.1516C400.818 85.3077 395.361 79.1698 395.361 71.8755C395.361 64.4842 401.122 58.1933 408.477 57.555C410.019 57.4037 411.453 58.5865 411.591 60.1707C411.728 61.7517 410.558 63.1451 408.977 63.2816C404.567 63.6649 401.11 67.4404 401.11 71.8755C401.11 76.2515 404.381 79.9348 408.722 80.4415C410.297 80.6258 411.428 82.052 411.243 83.6297C411.071 85.0938 409.831 86.1713 408.39 86.1713Z" fill="#705096"/>
<path d="M409.765 93.7535C408.23 93.7535 406.955 92.5378 406.896 90.9881C406.872 90.3712 406.86 89.7477 406.86 89.1242V50.1554C406.86 41.5236 413.883 34.5007 422.515 34.5007C422.781 34.5007 423.046 34.5369 423.301 34.6093L430.472 36.6476C445.117 40.808 460.598 40.8113 475.248 36.6476L482.419 34.6093C482.674 34.5353 482.939 34.5007 483.205 34.5007C491.839 34.5007 498.86 41.5236 498.86 50.1554V89.1242C498.86 89.7477 498.848 90.3696 498.824 90.9881C498.764 92.5756 497.417 93.8802 495.84 93.7486C494.254 93.6894 493.018 92.3535 493.079 90.766C493.099 90.2215 493.11 89.6753 493.11 89.1259V50.1554C493.11 44.8187 488.868 40.4543 483.58 40.2569L476.821 42.1784C461.143 46.6349 444.579 46.6349 428.899 42.1784L422.14 40.2569C416.852 40.4543 412.61 44.8187 412.61 50.1554V89.1242C412.61 89.6753 412.621 90.2232 412.641 90.7677C412.703 92.3535 411.468 93.6894 409.88 93.7502C409.841 93.7535 409.806 93.7535 409.765 93.7535Z" fill="#705096"/>
<path d="M432.736 67.5621C432.736 69.9442 430.804 71.8756 428.422 71.8756C426.04 71.8756 424.11 69.9442 424.11 67.5621C424.11 65.1801 426.04 63.2504 428.422 63.2504C430.804 63.2504 432.736 65.1801 432.736 67.5621Z" fill="#705096"/>
<path d="M481.61 67.5621C481.61 69.9442 479.68 71.8756 477.298 71.8756C474.916 71.8756 472.984 69.9442 472.984 67.5621C472.984 65.1801 474.916 63.2504 477.298 63.2504C479.68 63.2504 481.61 65.1801 481.61 67.5621Z" fill="#705096"/>
<path d="M464.361 94.8755H441.361C439.772 94.8755 438.485 93.5874 438.485 91.9999C438.485 90.4124 439.772 89.1243 441.361 89.1243H464.361C465.95 89.1243 467.235 90.4124 467.235 91.9999C467.235 93.5874 465.95 94.8755 464.361 94.8755Z" fill="#705096"/>
<path d="M516.89 184H391.704C387.379 184 383.86 180.481 383.86 176.156V96.9697C383.86 92.6448 387.379 89.1243 391.704 89.1243H516.89C521.218 89.1243 524.735 92.6448 524.735 96.9697V176.156C524.735 180.481 521.217 184 516.89 184ZM391.704 94.8755C390.551 94.8755 389.61 95.8148 389.61 96.9697V176.156C389.61 177.311 390.551 178.25 391.704 178.25H516.89C518.045 178.25 518.986 177.311 518.986 176.156V96.9697C518.986 95.8148 518.045 94.8755 516.89 94.8755H391.704Z" fill="#705096"/>
<path d="M464.361 136.562C464.361 142.119 459.855 146.625 454.298 146.625C448.741 146.625 444.235 142.119 444.235 136.562C444.235 131.005 448.741 126.501 454.298 126.501C459.855 126.501 464.361 131.005 464.361 136.562Z" fill="#705096"/>
</g>
<path d="M342.875 149.812H221.304C220.183 149.812 219.277 148.905 219.277 147.786V81.2082C219.277 76.5817 223.041 72.8156 227.669 72.8156H336.509C341.137 72.8156 344.902 76.5817 344.902 81.2082V147.786C344.902 148.905 343.994 149.812 342.875 149.812ZM223.329 145.76H340.85V81.2082C340.85 78.8156 338.902 76.8685 336.509 76.8685H227.669C225.277 76.8685 223.329 78.8156 223.329 81.2082V145.76Z" fill="#705096"/>
<path d="M336.509 166.022H227.669C223.041 166.022 219.277 162.256 219.277 157.63V147.786C219.277 146.667 220.183 145.76 221.304 145.76H342.875C343.994 145.76 344.902 146.667 344.902 147.786V157.63C344.902 162.256 341.137 166.022 336.509 166.022ZM223.329 149.812V157.63C223.329 160.023 225.277 161.97 227.669 161.97H336.509C338.902 161.97 340.849 160.023 340.849 157.63V149.812H223.329Z" fill="#705096"/>
<path d="M286.142 155.891C286.142 158.128 284.328 159.943 282.088 159.943C279.85 159.943 278.036 158.128 278.036 155.891C278.036 153.653 279.85 151.839 282.088 151.839C284.328 151.839 286.142 153.653 286.142 155.891Z" fill="#705096"/>
<path d="M302.352 182.231H261.827C260.967 182.231 260.199 181.689 259.915 180.876C259.63 180.063 259.889 179.16 260.562 178.623L269.932 171.126V163.996C269.932 162.875 270.839 161.97 271.958 161.97H292.221C293.339 161.97 294.246 162.875 294.246 163.996V171.126L303.617 178.623C304.289 179.16 304.548 180.064 304.264 180.876C303.978 181.689 303.212 182.231 302.352 182.231ZM267.603 178.179H296.575L290.954 173.683C290.474 173.298 290.194 172.716 290.194 172.101V166.022H273.984V172.101C273.984 172.716 273.704 173.298 273.224 173.683L267.603 178.179Z" fill="#705096"/>
<path d="M326.666 182.23H237.512C236.394 182.23 235.486 181.325 235.486 180.205C235.486 179.087 236.394 178.178 237.512 178.178H326.666C327.784 178.178 328.692 179.087 328.692 180.205C328.692 181.325 327.784 182.23 326.666 182.23Z" fill="#705096"/>
<path d="M312.483 106.249C311.363 106.249 310.456 105.342 310.456 104.223C310.456 103.105 309.546 102.196 308.43 102.196C307.312 102.196 306.404 103.105 306.404 104.223C306.404 105.342 305.496 106.249 304.377 106.249C303.258 106.249 302.352 105.342 302.352 104.223C302.352 100.87 305.078 98.1437 308.43 98.1437C311.782 98.1437 314.508 100.87 314.508 104.223C314.508 105.342 313.601 106.249 312.483 106.249Z" fill="#705096"/>
<path d="M259.801 106.249C258.681 106.249 257.774 105.342 257.774 104.223C257.774 103.105 256.866 102.196 255.748 102.196C254.632 102.196 253.722 103.105 253.722 104.223C253.722 105.342 252.815 106.249 251.696 106.249C250.577 106.249 249.669 105.342 249.669 104.223C249.669 100.87 252.396 98.1437 255.748 98.1437C259.1 98.1437 261.827 100.87 261.827 104.223C261.827 105.342 260.92 106.249 259.801 106.249Z" fill="#705096"/>
<path d="M282.008 127.557C274.211 127.557 267.087 126.765 262.958 125.437C261.892 125.094 261.307 123.953 261.648 122.887C261.991 121.823 263.123 121.232 264.197 121.578C267.893 122.767 274.718 123.504 282.008 123.504C289.214 123.504 295.999 122.778 299.717 121.61C300.78 121.276 301.924 121.867 302.259 122.935C302.594 124.004 302 125.142 300.933 125.477C296.787 126.781 289.713 127.557 282.008 127.557Z" fill="#705096"/>
<path d="M85.3948 183.954H153.439C166.988 183.954 178.011 172.931 178.011 159.383C178.011 150.202 172.85 141.79 164.749 137.584C164.769 137.28 164.78 136.986 164.78 136.701C164.78 128.363 157.997 121.579 149.659 121.579C146.194 121.579 142.901 122.75 140.253 124.863C135.916 112.766 124.467 104.568 111.384 104.568C94.4479 104.568 80.6695 118.347 80.6695 135.282C69.2382 137.507 60.8231 147.573 60.8231 159.383C60.8231 172.931 71.8458 183.954 85.3948 183.954ZM149.659 125.36C155.912 125.36 161 130.447 161 136.701C161 137.217 160.954 137.762 160.853 138.416C160.724 139.255 161.174 140.079 161.946 140.426C169.409 143.781 174.231 151.222 174.231 159.383C174.231 170.847 164.903 180.173 153.439 180.173H85.3948C73.9297 180.173 64.603 170.847 64.603 159.383C64.603 148.889 72.4553 140.023 82.8677 138.761C83.8572 138.641 84.5818 137.773 84.5273 136.779L84.4953 136.277C84.4736 135.948 84.4494 135.618 84.4494 135.282C84.4494 120.431 96.5317 108.349 111.384 108.349C123.811 108.349 134.557 116.787 137.514 128.866C137.684 129.565 138.237 130.105 138.94 130.261C139.64 130.417 140.371 130.162 140.823 129.601C142.991 126.905 146.213 125.36 149.659 125.36Z" fill="#705096"/>
<path d="M145.878 136.701C145.878 138.788 147.571 140.48 149.659 140.48C151.747 140.48 153.439 138.788 153.439 136.701C153.439 134.613 151.747 132.921 149.659 132.921C147.571 132.921 145.878 134.613 145.878 136.701Z" fill="#705096"/>
<path d="M92.9554 136.701C92.9554 138.788 94.648 140.48 96.7353 140.48C98.8226 140.48 100.515 138.788 100.515 136.701C100.515 134.613 98.8226 132.921 96.7353 132.921C94.648 132.921 92.9554 134.613 92.9554 136.701Z" fill="#705096"/>
<path d="M125.087 178.283C127.938 178.283 130.307 176.167 130.7 173.422C130.817 173.375 130.932 173.328 131.047 173.279C133.265 174.941 136.438 174.762 138.452 172.748C140.468 170.73 140.646 167.56 138.985 165.341C139.032 165.227 139.081 165.112 139.127 164.996C141.871 164.601 143.989 162.234 143.989 159.383C143.989 156.53 141.871 154.163 139.127 153.77C139.081 153.653 139.032 153.538 138.985 153.423C140.646 151.203 140.468 148.033 138.452 146.019C136.438 144.002 133.267 143.824 131.045 145.485C130.931 145.436 130.817 145.388 130.7 145.343C130.307 142.598 127.938 140.48 125.087 140.48C122.236 140.48 119.867 142.598 119.473 145.343C119.358 145.388 119.241 145.436 119.128 145.485C116.908 143.824 113.737 144.001 111.722 146.019C109.707 148.034 109.529 151.204 111.19 153.423C111.141 153.538 111.094 153.653 111.049 153.77C108.303 154.163 106.186 156.53 106.186 159.383C106.186 162.234 108.303 164.601 111.049 164.996C111.094 165.112 111.141 165.227 111.19 165.341C109.529 167.561 109.707 170.731 111.722 172.748C113.737 174.763 116.905 174.941 119.129 173.279C119.243 173.328 119.358 173.375 119.473 173.422C119.867 176.167 122.236 178.283 125.087 178.283ZM131.382 169.131C131.073 169.131 130.765 169.206 130.48 169.36C129.815 169.722 129.091 170.02 128.328 170.246C127.528 170.484 126.977 171.221 126.977 172.057V172.613C126.977 173.655 126.131 174.503 125.087 174.503C124.044 174.503 123.198 173.655 123.198 172.613V172.057C123.198 171.221 122.647 170.484 121.846 170.246C121.084 170.02 120.361 169.722 119.694 169.36C118.956 168.964 118.046 169.092 117.455 169.687L117.067 170.076C116.331 170.813 115.131 170.81 114.395 170.073C113.658 169.337 113.658 168.138 114.395 167.401L114.782 167.015C115.376 166.423 115.51 165.51 115.109 164.775C114.751 164.115 114.453 163.391 114.222 162.622C113.985 161.822 113.248 161.272 112.412 161.272H111.856C110.814 161.272 109.966 160.425 109.966 159.383C109.966 158.34 110.814 157.492 111.856 157.492H112.412C113.248 157.492 113.985 156.943 114.222 156.143C114.453 155.374 114.751 154.65 115.109 153.99C115.51 153.254 115.376 152.342 114.782 151.751L114.393 151.362C113.658 150.627 113.658 149.427 114.395 148.69C115.134 147.953 116.333 147.955 117.069 148.69L117.455 149.078C118.047 149.671 118.96 149.8 119.694 149.404C120.361 149.043 121.084 148.745 121.846 148.519C122.647 148.281 123.198 147.543 123.198 146.707V146.151C123.198 145.109 124.044 144.262 125.087 144.262C126.131 144.262 126.977 145.109 126.977 146.151V146.707C126.977 147.543 127.528 148.281 128.328 148.519C129.091 148.745 129.815 149.043 130.48 149.404C131.216 149.801 132.125 149.671 132.719 149.078L133.108 148.688C133.844 147.953 135.044 147.953 135.78 148.69C136.516 149.427 136.516 150.628 135.78 151.363L135.393 151.751C134.798 152.342 134.664 153.254 135.066 153.99C135.424 154.65 135.722 155.374 135.952 156.143C136.19 156.943 136.927 157.492 137.762 157.492H138.318C139.361 157.492 140.208 158.34 140.208 159.383C140.208 160.425 139.361 161.272 138.318 161.272H137.762C136.927 161.272 136.19 161.822 135.952 162.622C135.722 163.391 135.424 164.114 135.066 164.775C134.664 165.511 134.798 166.423 135.393 167.015L135.782 167.403C136.516 168.138 136.516 169.337 135.78 170.073C135.04 170.811 133.842 170.808 133.105 170.073L132.719 169.687C132.356 169.323 131.87 169.131 131.382 169.131ZM125.087 166.943C129.257 166.943 132.648 163.551 132.648 159.383C132.648 155.214 129.257 151.822 125.087 151.822C120.917 151.822 117.527 155.214 117.527 159.383C117.527 163.551 120.917 166.943 125.087 166.943ZM125.087 155.601C127.171 155.601 128.867 157.297 128.867 159.383C128.867 161.467 127.171 163.163 125.087 163.163C123.004 163.163 121.307 161.467 121.307 159.383C121.307 157.297 123.004 155.601 125.087 155.601Z" fill="#705096"/>
<path d="M96.7353 163.163H108.077C109.122 163.163 109.966 162.315 109.966 161.272C109.966 160.228 109.122 159.383 108.077 159.383H96.7353C95.6903 159.383 94.8454 160.228 94.8454 161.272C94.8454 162.315 95.6903 163.163 96.7353 163.163Z" fill="#705096"/>
<path d="M142.099 163.163H153.439C154.484 163.163 155.329 162.315 155.329 161.272C155.329 160.228 154.484 159.383 153.439 159.383H142.099C141.054 159.383 140.208 160.228 140.208 161.272C140.208 162.315 141.054 163.163 142.099 163.163Z" fill="#705096"/>
<path d="M10.143 179.918C10.5388 180.397 11.1277 180.674 11.7499 180.674C12.371 180.674 12.9599 180.397 13.3557 179.918L21.8577 169.627C23.5516 167.578 23.97 164.762 22.9508 162.279C21.9661 159.882 19.8681 158.297 17.3468 158.043C15.3667 157.828 13.3116 158.425 11.7499 159.636C10.1883 158.427 8.08904 157.846 6.16144 158.041C3.63183 158.297 1.53376 159.883 0.549092 162.281C-0.470143 164.763 -0.0505279 167.579 1.64224 169.628L10.143 179.918ZM4.40311 163.862C4.59027 163.405 5.17797 162.33 6.5894 162.185C6.71099 162.173 6.83378 162.167 6.95775 162.167C8.18799 162.167 9.3312 162.781 10.0143 163.808C10.3993 164.39 11.0514 164.741 11.7499 164.741C12.4473 164.741 13.0982 164.39 13.4844 163.811C14.2378 162.675 15.511 162.029 16.9176 162.187C18.3219 162.329 18.9084 163.405 19.0968 163.862C19.4365 164.689 19.4973 165.943 18.6462 166.975L11.7499 175.32L4.85491 166.975C4.00257 165.943 4.06337 164.692 4.40311 163.862Z" fill="#705096"/>
<defs>
<clipPath id="clip0">
<rect x="362" width="184" height="184" fill="white"/>
</clipPath>
</defs>
</svg>
